PathFileType	4	(X/Y/Z)	C:/Users/opensim2020/Desktop/walking_exp_matlab/subject01_walking15_straight_02.trc																																																																																																																															
DataRate	CameraRate	NumFrames	NumMarkers	Units	OrigDataRate	OrigDataStartFrame	OrigNumFrames																																																																																																																											
100	100	5	43	mm	100	1229	135																																																																																																																											
Frame#	Time	LFHD			RFHD			LBHD			RBHD			C7			T10			CLAV			STRN			RBAK			LSHO			LUPA			LELB			LFRM			LWRA			LWRB			LFIN			RSHO			RUPA			RELB			RFRM			RWRA			RWRB			RFIN			LASI			RASI			LPSI			RPSI			LTHI			LKNE			LTIB			LANK			LHEE			LTOE			RTHI			RKNE			RTIB			RANK			RHEE			RTOE			*39			*40			*41			*42		
		X1	Y1	Z1	X2	Y2	Z2	X3	Y3	Z3	X4	Y4	Z4	X5	Y5	Z5	X6	Y6	Z6	X7	Y7	Z7	X8	Y8	Z8	X9	Y9	Z9	X10	Y10	Z10	X11	Y11	Z11	X12	Y12	Z12	X13	Y13	Z13	X14	Y14	Z14	X15	Y15	Z15	X16	Y16	Z16	X17	Y17	Z17	X18	Y18	Z18	X19	Y19	Z19	X20	Y20	Z20	X21	Y21	Z21	X22	Y22	Z22	X23	Y23	Z23	X24	Y24	Z24	X25	Y25	Z25	X26	Y26	Z26	X27	Y27	Z27	X28	Y28	Z28	X29	Y29	Z29	X30	Y30	Z30	X31	Y31	Z31	X32	Y32	Z32	X33	Y33	Z33	X34	Y34	Z34	X35	Y35	Z35	X36	Y36	Z36	X37	Y37	Z37	X38	Y38	Z38	X39	Y39	Z39	X40	Y40	Z40	X41	Y41	Z41	X42	Y42	Z42	X43	Y43	Z43
																																																																																																																																		
85	0.84	153.01022	1652.83618	980.5769	185.07195	1666.1814	1089.26563	46.19294	1596.70789	1011.96594	77.62101	1609.59583	1127.83936	32.70201	1412.85303	1054.3136	-5.87216	1120.89673	1079.552	179.24391	1346.12622	1054.84875	219.96194	1190.68103	1059.12866	-22.84574	1226.89221	1143.52612	116.79498	1369.05383	893.69806	64.11275	1184.72949	820.15656	21.53692	1042.92578	834.68335	24.41575	930.22345	812.60791	65.39412	795.88287	826.4668	9.01791	808.48126	811.54462	27.69109	727.63458	797.97772	118.26526	1389.31238	1204.21619	47.80551	1201.67334	1315.44189	54.96596	1074.45923	1333.05933	134.12558	976.21417	1355.43726	255.26064	911.94226	1323.00378	221.88957	890.51459	1363.9458	294.41745	845.716	1362.02893	179.7933	926.91345	974.95404	169.14554	912.08112	1191.84241	-8.82887	925.76227	1018.17206	-13.29066	923.7713	1162.22253	229.42844	605.92316	912.44592	255.09473	473.73904	931.5246	222.80609	286.73346	917.12677	202.565	69.97908	968.39618	157.05385	40.35102	1020.48322	348.31427	34.91882	963.58386	92.80743	576.59674	1258.55261	79.31881	417.3356	1248.67358	-76.62851	333.78986	1254.89429	-239.71628	206.69153	1215.77429	-288.65396	232.31563	1164.36951	-229.21677	62.10046	1200.34888	165.48067	1696.50366	1067.76978	-1973.13147	1023.54126	3101.88696	-2012.51038	1022.18866	3140.78467	NaN	NaN	NaN
86	0.85	166.86752	1653.27161	978.3443	198.67812	1667.0896	1086.98413	59.70885	1597.56262	1009.78546	91.0344	1610.88708	1125.63586	45.90836	1413.78455	1052.62878	7.38826	1121.724	1077.56946	192.35814	1347.07324	1053.78955	233.03903	1191.55444	1058.34192	-10.09583	1228.0177	1141.95166	130.59439	1369.875	892.39264	79.86662	1185.27783	818.62964	39.31549	1042.49524	832.37958	44.26118	929.93408	810.30743	87.31358	796.33612	824.61438	30.82645	808.03198	808.88782	51.17129	727.47919	795.67889	130.73792	1390.33862	1203.03784	59.77309	1202.57239	1313.78027	66.01486	1075.1886	1330.48877	142.97997	975.19513	1353.37817	262.87341	908.00012	1321.63428	228.68134	887.23657	1362.39282	300.04236	841.19067	1361.26135	192.80058	927.72003	973.30743	182.23827	913.39246	1190.44995	4.25803	926.5993	1016.62091	-0.26563	923.58984	1160.6593	238.17865	604.88635	911.10272	262.32037	472.26004	930.12573	226.62842	286.46124	917.24701	202.99303	70.30592	968.54132	157.17722	40.55653	1020.4715	348.8201	34.4795	963.56799	113.78844	576.22589	1257.67126	105.16389	416.97342	1248.25256	-51.7669	336.47931	1254.41553	-217.61873	213.8163	1213.49731	-264.81244	239.59027	1159.94519	-210.75159	68.7291	1203.55334	178.95888	1697.3761	1065.15649	-1973.01245	1024.18152	3102.09521	-2012.48401	1022.19116	3140.8479	NaN	NaN	NaN
87	0.86	180.56253	1654.0293	976.2998	212.26364	1668.12671	1084.98059	73.08699	1598.58044	1007.72339	104.46149	1612.34607	1123.65857	59.16663	1415.00684	1051.03906	20.38676	1122.77136	1075.71521	205.31868	1348.09436	1052.86194	245.96716	1192.49915	1057.65454	2.6386	1229.13696	1140.28101	144.18797	1370.87744	891.15619	95.60507	1185.9386	817.12329	57.34452	1042.38037	830.19513	64.41656	929.81439	808.05865	109.83517	797.10535	822.7442	53.31244	807.69043	806.57031	75.47689	727.68567	793.28668	143.03571	1391.33704	1201.7002	71.75011	1203.67212	1312.42432	77.0909	1075.97839	1328.10693	151.45163	974.05811	1351.67505	270.0433	903.8385	1320.44641	235.11136	884.22766	1361.30103	305.19431	836.10211	1360.19934	205.68266	928.56702	971.85999	195.1572	914.91895	1189.19141	17.1807	927.40204	1015.06921	12.64184	923.65521	1159.00769	246.39764	604.1651	909.99316	268.90564	471.52957	929.08423	229.96884	286.40189	917.45117	203.2757	70.57763	968.70306	157.29309	40.80237	1020.5412	349.34344	33.98574	963.60126	134.53406	576.61243	1256.85925	130.62135	417.70099	1248.07043	-26.66805	339.05334	1253.3623	-194.75784	220.17421	1210.51355	-240.64143	244.4839	1154.4873	-188.93672	75.06586	1207.09094	192.65726	1698.43713	1062.69006	-1973.09009	1023.38501	3102.03247	-2012.52234	1022.16119	3140.78271	NaN	NaN	NaN
88	0.87	194.34874	1654.85901	974.53595	225.84816	1669.22412	1083.26855	86.53844	1599.84424	1005.9502	117.79539	1613.84436	1121.81519	72.3728	1416.32056	1049.39417	33.21228	1123.97424	1073.80811	218.19612	1349.22546	1051.98596	258.78668	1193.55798	1056.94519	15.34835	1230.22327	1138.42847	157.67859	1372.04016	890.04419	111.33382	1186.72705	815.64044	75.00574	1042.43225	827.73157	84.71516	929.89667	805.83673	133.02174	798.26141	820.90192	76.34698	807.57172	804.28436	100.63783	728.29504	790.83643	155.28217	1392.53809	1200.75745	83.68883	1204.83789	1311.12	88.14339	1076.83057	1325.97717	159.4371	973.03217	1349.96155	276.72693	899.67346	1319.49316	241.26573	881.3302	1360.37402	309.84668	830.89398	1359.27759	218.43977	929.28912	970.60083	207.97255	916.77319	1188.07654	29.92691	928.38617	1013.62799	25.03471	924.22882	1157.55981	253.8396	603.60431	909.1524	275.50787	471.10117	928.61548	233.10709	286.35287	917.50281	203.74632	70.61696	968.96619	157.48062	41.05152	1020.70178	349.69363	33.70222	963.6897	155.07034	577.78986	1255.91516	155.75894	419.37296	1247.83582	-1.40003	341.55014	1252.06836	-170.6649	225.13225	1207.02576	-215.87483	247.50417	1149.23303	-163.98061	80.12943	1209.94775	206.42294	1699.48779	1060.58752	-1973.21936	1023.45148	3101.98413	-2012.47766	1022.09113	3140.80566	NaN	NaN	NaN
89	0.88	208.18324	1655.96362	973.10223	239.40591	1670.43103	1081.92444	100.0537	1601.33875	1004.28754	131.08992	1615.46814	1120.35083	85.42167	1417.67395	1047.92529	45.91912	1125.35181	1072.03284	231.08701	1350.46997	1051.17859	271.52087	1194.76147	1056.2887	27.97775	1231.35437	1136.3927	171.10632	1373.35144	889.04449	127.03455	1187.68457	814.07568	92.73271	1042.54871	825.60059	105.40939	930.23926	803.55536	156.76683	799.73053	819.1203	100.01978	807.75031	801.90411	126.44825	729.28442	788.32465	167.61964	1393.59473	1199.69641	95.541	1205.99963	1309.84692	99.19524	1077.5896	1323.85278	167.46571	972.13611	1348.52405	283.01797	895.39014	1318.60339	247.02571	878.19617	1359.56775	313.83588	825.56348	1358.47156	231.06282	930.16669	969.44855	220.72888	918.79785	1187.13416	42.65445	929.59729	1012.32904	37.91466	925.25885	1156.26501	261.90768	603.29236	908.51593	282.03378	470.52063	928.40375	236.27176	286.25861	917.72913	204.28139	70.64534	969.13342	157.79816	41.39639	1020.93091	350.06775	33.4899	963.60736	175.64888	579.63538	1255.1532	180.70561	421.68881	1247.3988	23.95249	343.78253	1250.39343	-145.33853	228.60065	1203.59204	-190.55345	248.90485	1144.70789	-136.57925	83.87137	1211.47363	220.29048	1700.86731	1059.03101	-1973.11609	1023.51093	3101.94141	-2012.49963	1022.11481	3140.66968	NaN	NaN	NaN
